<?xml version="1.0" encoding="UTF-8" standalone="no"?>
<!DOCTYPE svg PUBLIC "-//W3C//DTD SVG 1.1//EN" "http://www.w3.org/Graphics/SVG/1.1/DTD/svg11.dtd">
<!-- Created with Vectornator (http://vectornator.io/) -->
<svg height="100%" stroke-miterlimit="10" style="fill-rule:nonzero;clip-rule:evenodd;stroke-linecap:round;stroke-linejoin:round;" version="1.1" viewBox="7.63272 20.9527 130.92 16.8" width="100%" xml:space="preserve" xmlns="http://www.w3.org/2000/svg" xmlns:vectornator="http://vectornator.io" xmlns:xlink="http://www.w3.org/1999/xlink">
<defs/>
<g id="Layer-1" vectornator:layerName="Layer 1">
<g fill="#ffffff" opacity="1" stroke="none" vectornator:layerName="Text 1">
<path d="M9.69672 35.2567C9.92072 35.3047 10.1607 35.3447 10.4167 35.3767C10.6407 35.4087 10.8767 35.4367 11.1247 35.4607C11.3727 35.4847 11.6247 35.4967 11.8807 35.4967C12.3287 35.4967 12.7647 35.4447 13.1887 35.3407C13.6127 35.2367 13.9927 35.0647 14.3287 34.8247C14.6647 34.5847 14.9327 34.2767 15.1327 33.9007C15.3327 33.5247 15.4327 33.0647 15.4327 32.5207C15.4327 32.0567 15.3167 31.6167 15.0847 31.2007C14.8527 30.7847 14.5567 30.3847 14.1967 30.0007C13.8367 29.6167 13.4527 29.2487 13.0447 28.8967C12.6367 28.5447 12.2527 28.1887 11.8927 27.8287C11.5327 27.4687 11.2367 27.1087 11.0047 26.7487C10.7727 26.3887 10.6567 26.0167 10.6567 25.6327C10.6567 25.0567 10.8407 24.6127 11.2087 24.3007C11.5767 23.9887 12.1687 23.8327 12.9847 23.8327C13.1127 23.8327 13.2447 23.8367 13.3807 23.8447C13.5167 23.8527 13.6487 23.8647 13.7767 23.8807C13.9047 23.8967 14.0327 23.9047 14.1607 23.9047L14.1607 23.2807C14.0487 23.2807 13.9287 23.2727 13.8007 23.2567C13.6887 23.2407 13.5647 23.2287 13.4287 23.2207C13.2927 23.2127 13.1527 23.2087 13.0087 23.2087C12.1447 23.2087 11.4327 23.4047 10.8727 23.7967C10.3127 24.1887 10.0327 24.8007 10.0327 25.6327C10.0327 26.0807 10.1487 26.5007 10.3807 26.8927C10.6127 27.2847 10.9087 27.6687 11.2687 28.0447C11.6287 28.4207 12.0127 28.7847 12.4207 29.1367C12.8287 29.4887 13.2127 29.8447 13.5727 30.2047C13.9327 30.5647 14.2287 30.9367 14.4607 31.3207C14.6927 31.7047 14.8087 32.1047 14.8087 32.5207C14.8087 33.2887 14.5487 33.8727 14.0287 34.2727C13.5087 34.6727 12.7927 34.8727 11.8807 34.8727C11.3367 34.8727 10.8407 34.8327 10.3927 34.7527C10.1527 34.7207 9.92072 34.6807 9.69672 34.6327L9.69672 35.2567ZM7.68072 32.3767C8.03272 32.4887 8.40072 32.5767 8.78472 32.6407C9.10472 32.7207 9.46872 32.7847 9.87672 32.8327C10.2847 32.8807 10.6967 32.9047 11.1127 32.9047C11.8487 32.9047 12.2167 32.6327 12.2167 32.0887C12.2167 31.8807 12.1047 31.6687 11.8807 31.4527C11.6567 31.2367 11.3727 30.9967 11.0287 30.7327C10.6847 30.4687 10.3167 30.1767 9.92472 29.8567C9.53272 29.5367 9.16472 29.1687 8.82072 28.7527C8.47672 28.3367 8.19272 27.8687 7.96872 27.3487C7.74472 26.8287 7.63272 26.2327 7.63272 25.5607C7.63272 24.8087 7.76872 24.1447 8.04072 23.5687C8.31272 22.9927 8.68872 22.5127 9.16872 22.1287C9.64872 21.7447 10.2127 21.4527 10.8607 21.2527C11.5087 21.0527 12.2007 20.9527 12.9367 20.9527C13.3207 20.9527 13.7047 20.9727 14.0887 21.0127C14.4727 21.0527 14.8167 21.0887 15.1207 21.1207C15.4727 21.1687 15.8167 21.2167 16.1527 21.2647L16.1527 25.7527C16.0247 25.7367 15.8807 25.7207 15.7207 25.7047C15.5927 25.6887 15.4487 25.6727 15.2887 25.6567C15.1287 25.6407 14.9607 25.6327 14.7847 25.6327C14.6887 25.6327 14.5687 25.6367 14.4247 25.6447C14.2807 25.6527 14.1447 25.6727 14.0167 25.7047C13.8887 25.7367 13.7767 25.7927 13.6807 25.8727C13.5847 25.9527 13.5367 26.0647 13.5367 26.2087C13.5367 26.3367 13.6447 26.4967 13.8607 26.6887C14.0767 26.8807 14.3407 27.1047 14.6527 27.3607C14.9647 27.6167 15.3087 27.9127 15.6847 28.2487C16.0607 28.5847 16.4047 28.9687 16.7167 29.4007C17.0287 29.8327 17.2927 30.3207 17.5087 30.8647C17.7247 31.4087 17.8327 32.0167 17.8327 32.6887C17.8327 33.3927 17.7207 34.0527 17.4967 34.6687C17.2727 35.2847 16.9247 35.8207 16.4527 36.2767C15.9807 36.7327 15.3767 37.0927 14.6407 37.3567C13.9047 37.6207 13.0327 37.7527 12.0247 37.7527C11.4167 37.7527 10.8527 37.7247 10.3327 37.6687C9.81272 37.6127 9.35272 37.5447 8.95272 37.4647C8.48872 37.3847 8.06472 37.2887 7.68072 37.1767L7.68072 32.3767Z"/>
<path d="M23.6647 21.3367L27.5047 21.3367L33.5767 37.3447L28.5367 37.3447L28.0087 35.9047L23.1607 35.9047L22.6327 37.3447L17.5927 37.3447L23.6647 21.3367ZM26.6647 32.3767L25.5847 29.5687L24.5047 32.3767L26.6647 32.3767ZM21.1687 35.4247L21.6247 34.2247L29.5447 34.2247L30.0007 35.4247L30.6727 35.4247L26.0407 23.2567L25.1287 23.2567L20.4967 35.4247L21.1687 35.4247ZM25.5847 23.8327L29.3287 33.6487L21.8407 33.6487L25.5847 23.8327Z"/>
<path d="M33.9367 21.3367L38.1367 21.3367L42.5527 27.5047L42.5527 21.3367L47.5687 21.3367L47.5687 37.3447L43.3447 37.3447L38.9527 31.2007L38.9527 37.3447L33.9367 37.3447L33.9367 21.3367ZM36.7927 35.4247L36.7927 24.3367L44.7127 35.4247L45.3367 35.4247L45.3367 23.2567L44.7127 23.2567L44.7127 34.3447L36.7927 23.2567L36.1687 23.2567L36.1687 35.4247L36.7927 35.4247Z"/>
<path d="M48.4087 33.5047L50.1607 33.5047C50.6727 33.5047 51.0167 33.4087 51.1927 33.2167C51.3687 33.0247 51.4567 32.7527 51.4567 32.4007L51.4567 21.3367L56.7127 21.3367L56.7127 33.2887C56.7127 34.7767 56.3727 35.8247 55.6927 36.4327C55.0127 37.0407 53.9287 37.3447 52.4407 37.3447L48.4087 37.3447L48.4087 33.5047ZM52.2727 35.4247C53.0567 35.4247 53.6047 35.2527 53.9167 34.9087C54.2287 34.5647 54.3847 34.0487 54.3847 33.3607L54.3847 23.2567L53.7607 23.2567L53.7607 33.3607C53.7607 33.8567 53.6727 34.2287 53.4967 34.4767C53.3207 34.7247 52.9127 34.8487 52.2727 34.8487L50.3287 34.8487L50.3287 35.4247L52.2727 35.4247Z"/>
<path d="M63.0967 21.3367L66.9367 21.3367L73.0087 37.3447L67.9687 37.3447L67.4407 35.9047L62.5927 35.9047L62.0647 37.3447L57.0247 37.3447L63.0967 21.3367ZM66.0967 32.3767L65.0167 29.5687L63.9367 32.3767L66.0967 32.3767ZM60.6007 35.4247L61.0567 34.2247L68.9767 34.2247L69.4327 35.4247L70.1047 35.4247L65.4727 23.2567L64.5607 23.2567L59.9287 35.4247L60.6007 35.4247ZM65.0167 23.8327L68.7607 33.6487L61.2727 33.6487L65.0167 23.8327Z"/>
<path d="M74.0167 30.4567L69.0487 21.3367L74.7367 21.3367L76.5847 24.7207L78.4087 21.3367L84.0967 21.3367L79.1287 30.4567L79.1287 37.3447L74.0167 37.3447L74.0167 30.4567ZM76.8967 35.4247L76.8967 29.6887L80.4007 23.2567L79.6567 23.2567L76.5847 28.9447L73.4887 23.2567L72.7687 23.2567L76.2487 29.6887L76.2487 35.4247L76.8967 35.4247Z"/>
<path d="M90.8407 35.2567C91.0647 35.3047 91.3047 35.3447 91.5607 35.3767C91.7847 35.4087 92.0207 35.4367 92.2687 35.4607C92.5167 35.4847 92.7687 35.4967 93.0247 35.4967C93.4727 35.4967 93.9087 35.4447 94.3327 35.3407C94.7567 35.2367 95.1367 35.0647 95.4727 34.8247C95.8087 34.5847 96.0767 34.2767 96.2767 33.9007C96.4767 33.5247 96.5767 33.0647 96.5767 32.5207C96.5767 32.0567 96.4607 31.6167 96.2287 31.2007C95.9967 30.7847 95.7007 30.3847 95.3407 30.0007C94.9807 29.6167 94.5967 29.2487 94.1887 28.8967C93.7807 28.5447 93.3967 28.1887 93.0367 27.8287C92.6767 27.4687 92.3807 27.1087 92.1487 26.7487C91.9167 26.3887 91.8007 26.0167 91.8007 25.6327C91.8007 25.0567 91.9847 24.6127 92.3527 24.3007C92.7207 23.9887 93.3127 23.8327 94.1287 23.8327C94.2567 23.8327 94.3887 23.8367 94.5247 23.8447C94.6607 23.8527 94.7927 23.8647 94.9207 23.8807C95.0487 23.8967 95.1767 23.9047 95.3047 23.9047L95.3047 23.2807C95.1927 23.2807 95.0727 23.2727 94.9447 23.2567C94.8327 23.2407 94.7087 23.2287 94.5727 23.2207C94.4367 23.2127 94.2967 23.2087 94.1527 23.2087C93.2887 23.2087 92.5767 23.4047 92.0167 23.7967C91.4567 24.1887 91.1767 24.8007 91.1767 25.6327C91.1767 26.0807 91.2927 26.5007 91.5247 26.8927C91.7567 27.2847 92.0527 27.6687 92.4127 28.0447C92.7727 28.4207 93.1567 28.7847 93.5647 29.1367C93.9727 29.4887 94.3567 29.8447 94.7167 30.2047C95.0767 30.5647 95.3727 30.9367 95.6047 31.3207C95.8367 31.7047 95.9527 32.1047 95.9527 32.5207C95.9527 33.2887 95.6927 33.8727 95.1727 34.2727C94.6527 34.6727 93.9367 34.8727 93.0247 34.8727C92.4807 34.8727 91.9847 34.8327 91.5367 34.7527C91.2967 34.7207 91.0647 34.6807 90.8407 34.6327L90.8407 35.2567ZM88.8247 32.3767C89.1767 32.4887 89.5447 32.5767 89.9287 32.6407C90.2487 32.7207 90.6127 32.7847 91.0207 32.8327C91.4287 32.8807 91.8407 32.9047 92.2567 32.9047C92.9927 32.9047 93.3607 32.6327 93.3607 32.0887C93.3607 31.8807 93.2487 31.6687 93.0247 31.4527C92.8007 31.2367 92.5167 30.9967 92.1727 30.7327C91.8287 30.4687 91.4607 30.1767 91.0687 29.8567C90.6767 29.5367 90.3087 29.1687 89.9647 28.7527C89.6207 28.3367 89.3367 27.8687 89.1127 27.3487C88.8887 26.8287 88.7767 26.2327 88.7767 25.5607C88.7767 24.8087 88.9127 24.1447 89.1847 23.5687C89.4567 22.9927 89.8327 22.5127 90.3127 22.1287C90.7927 21.7447 91.3567 21.4527 92.0047 21.2527C92.6527 21.0527 93.3447 20.9527 94.0807 20.9527C94.4647 20.9527 94.8487 20.9727 95.2327 21.0127C95.6167 21.0527 95.9607 21.0887 96.2647 21.1207C96.6167 21.1687 96.9607 21.2167 97.2967 21.2647L97.2967 25.7527C97.1687 25.7367 97.0247 25.7207 96.8647 25.7047C96.7367 25.6887 96.5927 25.6727 96.4327 25.6567C96.2727 25.6407 96.1047 25.6327 95.9287 25.6327C95.8327 25.6327 95.7127 25.6367 95.5687 25.6447C95.4247 25.6527 95.2887 25.6727 95.1607 25.7047C95.0327 25.7367 94.9207 25.7927 94.8247 25.8727C94.7287 25.9527 94.6807 26.0647 94.6807 26.2087C94.6807 26.3367 94.7887 26.4967 95.0047 26.6887C95.2207 26.8807 95.4847 27.1047 95.7967 27.3607C96.1087 27.6167 96.4527 27.9127 96.8287 28.2487C97.2047 28.5847 97.5487 28.9687 97.8607 29.4007C98.1727 29.8327 98.4367 30.3207 98.6527 30.8647C98.8687 31.4087 98.9767 32.0167 98.9767 32.6887C98.9767 33.3927 98.8647 34.0527 98.6407 34.6687C98.4167 35.2847 98.0687 35.8207 97.5967 36.2767C97.1247 36.7327 96.5207 37.0927 95.7847 37.3567C95.0487 37.6207 94.1767 37.7527 93.1687 37.7527C92.5607 37.7527 91.9967 37.7247 91.4767 37.6687C90.9567 37.6127 90.4967 37.5447 90.0967 37.4647C89.6327 37.3847 89.2087 37.2887 88.8247 37.1767L88.8247 32.3767Z"/>
<path d="M99.6967 29.3527C99.6967 28.2007 99.9167 27.1127 100.357 26.0887C100.797 25.0647 101.397 24.1727 102.157 23.4127C102.917 22.6527 103.809 22.0527 104.833 21.6127C105.857 21.1727 106.945 20.9527 108.097 20.9527C109.249 20.9527 110.337 21.1727 111.361 21.6127C112.385 22.0527 113.277 22.6527 114.037 23.4127C114.797 24.1727 115.397 25.0647 115.837 26.0887C116.277 27.1127 116.497 28.2007 116.497 29.3527C116.497 30.5047 116.277 31.5927 115.837 32.6167C115.397 33.6407 114.797 34.5327 114.037 35.2927C113.277 36.0527 112.385 36.6527 111.361 37.0927C110.337 37.5327 109.249 37.7527 108.097 37.7527C106.945 37.7527 105.857 37.5327 104.833 37.0927C103.809 36.6527 102.917 36.0527 102.157 35.2927C101.397 34.5327 100.797 33.6407 100.357 32.6167C99.9167 31.5927 99.6967 30.5047 99.6967 29.3527ZM101.953 29.3527C101.953 30.2007 102.113 30.9967 102.433 31.7407C102.753 32.4847 103.193 33.1367 103.753 33.6967C104.313 34.2567 104.965 34.6967 105.709 35.0167C106.453 35.3367 107.249 35.4967 108.097 35.4967C108.945 35.4967 109.741 35.3367 110.485 35.0167C111.229 34.6967 111.881 34.2567 112.441 33.6967C113.001 33.1367 113.441 32.4847 113.761 31.7407C114.081 30.9967 114.241 30.2007 114.241 29.3527C114.241 28.5047 114.081 27.7087 113.761 26.9647C113.441 26.2207 113.001 25.5687 112.441 25.0087C111.881 24.4487 111.229 24.0087 110.485 23.6887C109.741 23.3687 108.945 23.2087 108.097 23.2087C107.249 23.2087 106.453 23.3687 105.709 23.6887C104.965 24.0087 104.313 24.4487 103.753 25.0087C103.193 25.5687 102.753 26.2207 102.433 26.9647C102.113 27.7087 101.953 28.5047 101.953 29.3527ZM104.737 29.3527C104.737 29.8167 104.825 30.2527 105.001 30.6607C105.177 31.0687 105.417 31.4247 105.721 31.7287C106.025 32.0327 106.381 32.2727 106.789 32.4487C107.197 32.6247 107.633 32.7127 108.097 32.7127C108.561 32.7127 108.997 32.6247 109.405 32.4487C109.813 32.2727 110.169 32.0327 110.473 31.7287C110.777 31.4247 111.017 31.0687 111.193 30.6607C111.369 30.2527 111.457 29.8167 111.457 29.3527C111.457 28.8887 111.369 28.4527 111.193 28.0447C111.017 27.6367 110.777 27.2807 110.473 26.9767C110.169 26.6727 109.813 26.4327 109.405 26.2567C108.997 26.0807 108.561 25.9927 108.097 25.9927C107.633 25.9927 107.197 26.0807 106.789 26.2567C106.381 26.4327 106.025 26.6727 105.721 26.9767C105.417 27.2807 105.177 27.6367 105.001 28.0447C104.825 28.4527 104.737 28.8887 104.737 29.3527ZM108.097 34.8727C107.329 34.8727 106.613 34.7287 105.949 34.4407C105.285 34.1527 104.701 33.7567 104.197 33.2527C103.693 32.7487 103.297 32.1647 103.009 31.5007C102.721 30.8367 102.577 30.1207 102.577 29.3527C102.577 28.5847 102.721 27.8687 103.009 27.2047C103.297 26.5407 103.693 25.9567 104.197 25.4527C104.701 24.9487 105.285 24.5527 105.949 24.2647C106.613 23.9767 107.329 23.8327 108.097 23.8327C108.865 23.8327 109.581 23.9767 110.245 24.2647C110.909 24.5527 111.493 24.9487 111.997 25.4527C112.501 25.9567 112.897 26.5407 113.185 27.2047C113.473 27.8687 113.617 28.5847 113.617 29.3527C113.617 30.1207 113.473 30.8367 113.185 31.5007C112.897 32.1647 112.501 32.7487 111.997 33.2527C111.493 33.7567 110.909 34.1527 110.245 34.4407C109.581 34.7287 108.865 34.8727 108.097 34.8727Z"/>
<path d="M117.817 21.3367L122.017 21.3367L126.433 27.5047L126.433 21.3367L131.449 21.3367L131.449 37.3447L127.225 37.3447L122.833 31.2007L122.833 37.3447L117.817 37.3447L117.817 21.3367ZM120.673 35.4247L120.673 24.3367L128.593 35.4247L129.217 35.4247L129.217 23.2567L128.593 23.2567L128.593 34.3447L120.673 23.2567L120.049 23.2567L120.049 35.4247L120.673 35.4247Z"/>
<path d="M133.129 21.3367L138.553 21.3367L138.553 37.3447L133.129 37.3447L133.129 21.3367ZM136.153 35.4247L136.153 23.2567L135.529 23.2567L135.529 35.4247L136.153 35.4247Z"/>
</g>
</g>
</svg>
